<svg width="1024" height="1024" viewBox="0 0 1024 1024" fill="none"
    xmlns="http://www.w3.org/2000/svg">
    <path
        d="M696.43 775.945C644.068 834.389 571.383 868.061 496.918 868.061C477.19 868.061 457.461 865.54 438.326 860.793C385.518 847.739 340.424 818.962 304.082 775.203C302.895 773.72 202.323 644.667 295.626 490.695C300.67 482.536 306.307 475.119 310.757 469.483C351.401 418.307 391.155 347.55 369.498 316.252C367.818 313.773 366.932 310.842 366.958 307.847C366.985 304.853 367.922 301.938 369.646 299.49C373.058 294.298 379.436 291.924 385.37 293.556C391.155 294.891 435.952 308.983 445.594 397.688C455.384 376.921 463.988 349.182 461.911 317.587C458.796 269.674 432.541 224.135 383.738 182.008C381.185 179.802 379.467 176.785 378.873 173.463C378.279 170.142 378.844 166.717 380.475 163.762C383.738 157.68 391.007 154.565 397.533 156.642C400.945 157.532 717.939 253.654 669.878 582.218C688.42 562.341 709.039 523.774 703.995 453.166C703.55 446.194 707.852 439.964 714.379 437.887C721.054 435.81 728.174 438.629 731.586 444.562C732.624 446.342 832.751 623.604 696.43 775.945Z"
        fill="#3C93C9" />
</svg>
