<?xml version="1.0" encoding="utf-8"?>
<!-- Generator: Adobe Illustrator 27.5.0, SVG Export Plug-In . SVG Version: 6.00 Build 0)  -->
<svg version="1.1" xmlns="http://www.w3.org/2000/svg" xmlns:xlink="http://www.w3.org/1999/xlink" x="0px" y="0px"
	 viewBox="0 0 2500 2500" style="enable-background:new 0 0 2500 2500;" xml:space="preserve">
<g id="Background">
	<rect style="fill:#FFFFFF;" width="2500" height="2500"/>
</g>
<g id="Illustration">
	<g id="Discipline_1_">
		<circle style="fill:#F2E6DC;" cx="1250" cy="1250" r="915"/>
		<g>
			<path style="fill:#D3BBA3;" d="M1562.542,1756.387c-32.222,0-62.452-7.112-88.266-23.835
				c-35.566-23.041-57.452-59.313-65.057-107.808c-0.187-1.203,0.635-2.332,1.837-2.521c1.238-0.179,2.33,0.635,2.521,1.837
				c7.4,47.206,28.63,82.461,63.098,104.794c102.38,66.328,276.84-22.337,362.501-103.149
				c90.064-84.965,138.249-163.17,182.886-254.45c0.538-1.092,1.856-1.546,2.95-1.012c1.094,0.536,1.546,1.856,1.012,2.95
				c-44.85,91.713-93.274,170.296-183.82,255.72C1776.963,1690.46,1660.604,1756.387,1562.542,1756.387z"/>
			<g>
				<path style="fill:#E6D0BE;" d="M2066.018,1514.851c-42.685,13.962-76.777-6.062-80.281-28.066
					c-3.504-22.004,22.683-52.16,67.591-51.617c44.703,0.54,93.02,26.037,93.02,26.037S2111.661,1499.922,2066.018,1514.851z"/>
				<path style="fill:#D3BBA3;" d="M1957.079,1493.157c-1.066,0-2.002-0.773-2.175-1.858c-0.192-1.202,0.627-2.332,1.83-2.524
					l151.853-24.184c1.201-0.202,2.334,0.629,2.523,1.83c0.192,1.202-0.626,2.332-1.83,2.524l-151.853,24.184
					C1957.312,1493.148,1957.194,1493.157,1957.079,1493.157z"/>
			</g>
			<g>
				<path style="fill:#E6D0BE;" d="M1930.065,1390.747c15.093,52.879-10.997,93.66-38.083,96.922
					c-27.087,3.262-62.763-30.187-60.006-85.108c2.745-54.672,36.195-112.603,36.195-112.603S1913.926,1334.203,1930.065,1390.747z"
					/>
				<path style="fill:#D3BBA3;" d="M1900.672,1566.052c-1.1,0-2.052-0.823-2.188-1.942l-27.442-227.852
					c-0.144-1.208,0.717-2.306,1.927-2.452c1.18-0.146,2.306,0.717,2.452,1.927l27.442,227.852c0.144,1.208-0.717,2.306-1.927,2.452
					C1900.848,1566.047,1900.76,1566.052,1900.672,1566.052z"/>
			</g>
			<g>
				<path style="fill:#E6D0BE;" d="M2068.076,1286.54c3.012,40.559-21.992,66.187-42.098,64.493
					c-20.106-1.694-40.936-31.263-30.713-70.628c10.176-39.186,43.079-76.133,43.079-76.133S2064.856,1243.17,2068.076,1286.54z"/>
				<path style="fill:#D3BBA3;" d="M2024.044,1374.428c-0.06,0-0.123-0.002-0.183-0.006c-1.214-0.101-2.117-1.167-2.018-2.379
					l11.074-133.852c0.101-1.214,1.165-2.084,2.379-2.017c1.214,0.101,2.117,1.167,2.018,2.379l-11.074,133.852
					C2026.144,1373.556,2025.179,1374.428,2024.044,1374.428z"/>
			</g>
			<g>
				<path style="fill:#E6D0BE;" d="M1932.327,1720.606c-54.406-7.998-80.843-48.554-72.673-74.585
					c8.17-26.03,53.334-44.787,102.259-19.679c48.702,24.994,87.742,79.314,87.742,79.314S1990.504,1729.158,1932.327,1720.606z"/>
				<path style="fill:#D3BBA3;" d="M2005.614,1693.535c-0.217,0-0.441-0.032-0.661-0.101l-174.943-54.907
					c-1.161-0.364-1.807-1.602-1.443-2.765c0.364-1.161,1.595-1.813,2.765-1.443l174.943,54.907
					c1.161,0.364,1.807,1.602,1.443,2.765C2007.422,1692.932,2006.552,1693.535,2005.614,1693.535z"/>
			</g>
			<g>
				<path style="fill:#E6D0BE;" d="M1785.681,1566.467c18.991,40.698,3.21,76.949-18.213,83.073
					c-21.423,6.124-54.508-16.25-59.367-60.897c-4.837-44.444,14.668-95.475,14.668-95.475S1765.374,1522.949,1785.681,1566.467z"/>
				<path style="fill:#D3BBA3;" d="M1775.046,1679.69c-0.958,0-1.841-0.631-2.119-1.6l-42.26-147.843
					c-0.334-1.169,0.344-2.39,1.516-2.726c1.165-0.323,2.39,0.342,2.726,1.516l42.26,147.844c0.334,1.169-0.344,2.39-1.516,2.726
					C1775.451,1679.662,1775.249,1679.69,1775.046,1679.69z"/>
			</g>
			<g>
				<path style="fill:#E6D0BE;" d="M1579.534,1687.003c-26.178,36.492-65.512,40.492-81.345,24.815
					c-15.833-15.677-12.534-55.48,24.009-81.587c36.377-25.988,90.421-33.981,90.421-33.981S1607.526,1647.982,1579.534,1687.003z"
					/>
				<path style="fill:#D3BBA3;" d="M1477.54,1734.322c-0.56,0-1.122-0.213-1.55-0.637c-0.866-0.857-0.874-2.254-0.017-3.118
					l108.189-109.266c0.859-0.868,2.254-0.872,3.118-0.017c0.866,0.857,0.874,2.254,0.017,3.118l-108.189,109.266
					C1478.675,1734.105,1478.108,1734.322,1477.54,1734.322z"/>
			</g>
			<g>
				<path style="fill:#E6D0BE;" d="M1703.463,1803.942c-44.885,1.518-72.049-27.21-69.285-49.319
					c2.764-22.109,36.316-43.776,79.294-30.745c42.783,12.972,82.085,50.919,82.085,50.919S1751.458,1802.318,1703.463,1803.942z"/>
				<path style="fill:#D3BBA3;" d="M1758.077,1771.922c-0.09,0-0.183-0.006-0.276-0.017l-152.58-19.075
					c-1.208-0.151-2.065-1.253-1.914-2.461c0.153-1.206,1.238-2.043,2.461-1.914l152.58,19.075c1.208,0.151,2.065,1.253,1.914,2.461
					C1760.123,1771.106,1759.173,1771.922,1758.077,1771.922z"/>
			</g>
		</g>
		<g>
			<path style="fill:#D3BBA3;" d="M911.967,1826.055c-111.335,0-230.158-124.344-281.048-219.326
				c-58.785-109.726-79.791-199.611-93.244-300.814c-0.161-1.208,0.687-2.317,1.895-2.476c1.219-0.159,2.317,0.687,2.476,1.895
				c13.39,100.726,34.289,190.172,92.762,299.311c55.613,103.803,192.924,243.228,311.086,212.774
				c39.768-10.247,71.084-36.952,93.072-79.374c0.56-1.085,1.895-1.503,2.971-0.943c1.081,0.56,1.503,1.89,0.943,2.971
				c-22.591,43.582-54.851,71.043-95.886,81.617C935.469,1824.659,923.751,1826.055,911.967,1826.055z"/>
			<g>
				<path style="fill:#E6D0BE;" d="M454.824,1427.581c36.055,26.776,74.737,18.597,85.038-1.16s-4.973-56.661-47.735-70.386
					c-42.567-13.663-96.476-4.803-96.476-4.803S416.27,1398.949,454.824,1427.581z"/>
				<path style="fill:#D3BBA3;" d="M565.714,1441.665c-0.342,0-0.691-0.08-1.016-0.25l-136.346-71.088
					c-1.081-0.562-1.499-1.895-0.937-2.974c0.562-1.081,1.893-1.503,2.974-0.937l136.346,71.088
					c1.081,0.562,1.498,1.895,0.937,2.973C567.277,1441.234,566.51,1441.665,565.714,1441.665z"/>
			</g>
			<g>
				<path style="fill:#E6D0BE;" d="M623.114,1352.993c-31.082,45.364-19.27,92.313,5.384,103.996
					c24.654,11.683,69.096-8.726,83.897-61.688c14.733-52.721,1.38-118.269,1.38-118.269S656.35,1304.484,623.114,1352.993z"/>
				<path style="fill:#D3BBA3;" d="M596.097,1528.684c-0.316,0-0.637-0.069-0.941-0.213c-1.103-0.521-1.572-1.834-1.049-2.935
					l98.276-207.393c0.521-1.1,1.834-1.57,2.937-1.049c1.1,0.521,1.57,1.835,1.046,2.935l-98.276,207.393
					C597.714,1528.219,596.924,1528.684,596.097,1528.684z"/>
			</g>
			<g>
				<path style="fill:#E6D0BE;" d="M525.269,1210.4c-15.717,37.511-0.131,69.745,19.475,74.514
					c19.606,4.769,48.737-16.669,51.524-57.244c2.775-40.39-16.714-85.864-16.714-85.864S542.076,1170.289,525.269,1210.4z"/>
				<path style="fill:#D3BBA3;" d="M539.863,1307.829c-0.174,0-0.351-0.019-0.527-0.063c-1.182-0.291-1.906-1.484-1.617-2.668
					l31.942-130.455c0.291-1.182,1.484-1.91,2.668-1.617c1.182,0.291,1.906,1.484,1.617,2.668l-31.942,130.455
					C541.756,1307.156,540.856,1307.829,539.863,1307.829z"/>
			</g>
			<g>
				<path style="fill:#E6D0BE;" d="M516.37,1665.111c54.135,9.667,92.067-20.413,92.573-47.691
					c0.506-27.278-36.38-59.388-90.741-51.09c-54.114,8.26-108.365,47.398-108.365,47.398S458.484,1654.774,516.37,1665.111z"/>
				<path style="fill:#D3BBA3;" d="M639.476,1619.712c-0.013,0-0.028,0-0.041,0l-183.325-3.4c-1.216-0.024-2.185-1.029-2.164-2.246
					c0.024-1.204,1.005-2.164,2.205-2.164c0.013,0,0.026,0,0.041,0l183.325,3.4c1.216,0.024,2.185,1.029,2.164,2.246
					C641.657,1618.752,640.675,1619.712,639.476,1619.712z"/>
			</g>
			<g>
				<path style="fill:#E6D0BE;" d="M704.326,1565.429c-30.916,32.575-27.445,71.96-9.069,84.561
					c18.376,12.601,56.848,1.873,75.613-38.929c18.68-40.616,16.364-95.199,16.364-95.199S737.384,1530.596,704.326,1565.429z"/>
				<path style="fill:#D3BBA3;" d="M679.202,1676.295c-0.431,0-0.863-0.125-1.245-0.385c-1.006-0.689-1.26-2.063-0.573-3.066
					l86.963-126.814c0.693-1.003,2.067-1.257,3.066-0.573c1.005,0.689,1.26,2.063,0.573,3.066l-86.963,126.814
					C680.595,1675.959,679.904,1676.295,679.202,1676.295z"/>
			</g>
			<g>
				<path style="fill:#E6D0BE;" d="M861.612,1745.113c13.255,42.91,49.291,59.176,69.278,49.329
					c19.987-9.847,29.48-48.642,3.101-84.989c-26.259-36.182-74.979-60.9-74.979-60.9S847.438,1699.23,861.612,1745.113z"/>
				<path style="fill:#D3BBA3;" d="M944.04,1822.446c-0.814,0-1.596-0.452-1.981-1.229l-67.96-137.933
					c-0.538-1.094-0.088-2.416,1.003-2.954c1.096-0.534,2.414-0.088,2.954,1.003l67.96,137.932c0.538,1.094,0.088,2.416-1.003,2.954
					C944.699,1822.373,944.368,1822.446,944.04,1822.446z"/>
			</g>
			<g>
				<path style="fill:#E6D0BE;" d="M706.998,1816.719c42.087,15.673,76.959-2.959,81.349-24.803
					c4.39-21.844-20.56-53.032-65.453-54.303c-44.688-1.264-93.995,22.262-93.995,22.262S661.994,1799.96,706.998,1816.719z"/>
				<path style="fill:#D3BBA3;" d="M816.813,1799.442c-0.144,0-0.291-0.013-0.437-0.043l-150.755-30.293
					c-1.193-0.239-1.966-1.402-1.727-2.597c0.241-1.193,1.406-1.979,2.597-1.727l150.755,30.293
					c1.193,0.239,1.966,1.402,1.727,2.597C818.762,1798.718,817.843,1799.442,816.813,1799.442z"/>
			</g>
		</g>
		<g>
			<g>
				<path style="fill:#BC8271;" d="M1352.177,1823.7c0,0,69.591-19.921,116.538,14.004c41.694,30.129,25.152,144.714,25.152,144.714
					s24.239,48.819,21.08,93.802c-2.991,42.597-23.891,74.75-41.602,72.915c-14.158-1.466-25.051-49.654-25.051-49.654
					s-64.979-79.773-76.941-97.965c-11.963-18.194-35.175-54.33-35.175-54.33l-77.597-31.346l32.172-118.151L1352.177,1823.7z"/>
				<g>
					<path style="fill:#363E44;" d="M1551.151,1726.776c-33.564-6.3-66.377-10.41-97.757-12.492v-67.95h-395.857v65.349
						c-29.893,2.142-61.035,6.126-92.852,12.098c-191.215,35.892-349.815,145.322-334.848,225.056
						c14.967,79.734,197.832,99.578,389.047,63.686c96.687-18.149,180.997-51.09,238.81-89.527
						c3.541,2.351,17.256,14.292,17.256,14.292l-16.537,126.336c0,0,594.454,0,612.131-128.896
						C1881.458,1855.137,1742.366,1762.669,1551.151,1726.776z"/>
					<path style="fill:#40484C;" d="M1261.026,1831.931c-1.003,0-1.912-0.691-2.147-1.712c-0.274-1.186,0.469-2.368,1.656-2.642
						c70.208-16.129,142.222-25.508,214.042-27.873c94.693-3.124,189.8,5.857,282.652,26.684c1.188,0.267,1.936,1.445,1.669,2.633
						c-0.267,1.186-1.436,1.944-2.633,1.669c-92.486-20.743-187.212-29.677-281.541-26.581
						c-71.538,2.358-143.27,11.698-213.202,27.765C1261.356,1831.913,1261.19,1831.931,1261.026,1831.931z"/>
					<path style="fill:#40484C;" d="M1262.447,1831.931c-0.164,0-0.329-0.017-0.495-0.056
						c-69.93-16.067-141.662-25.407-213.202-27.765c-94.323-3.105-189.052,5.835-281.541,26.581
						c-1.18,0.273-2.366-0.482-2.633-1.669c-0.267-1.188,0.48-2.366,1.669-2.633c92.852-20.825,187.941-29.817,282.652-26.684
						c71.822,2.364,143.836,11.743,214.042,27.873c1.186,0.273,1.929,1.455,1.656,2.642
						C1264.359,1831.239,1263.451,1831.931,1262.447,1831.931z"/>
				</g>
				<g>
					<path style="fill:#BC8271;" d="M1236.155,1811.81c0,0-57.332-57.157-113.167-41.752
						c-58.956,16.266-65.618,84.433-86.795,114.433c-14.744,20.887-48.666,40.285-63.112,80.469
						c-14.446,40.184-6.027,74.777,7.933,77.556c20.218,4.025,38.78-33.739,38.78-33.739s95.506-41.394,114.658-51.752
						c19.154-10.358,57.309-28.882,57.309-28.882l83.188,9.144l27.623-119.296L1236.155,1811.81z"/>
					<path style="fill:#363E44;" d="M1229.659,1863.496c-0.633,0-1.262-0.271-1.697-0.795c-2.427-2.917-9.319-9.881-20.885-11.513
						c-9.917-1.397-18.259,1.778-22.348,3.798c-1.087,0.543-2.414,0.09-2.952-1.001c-0.54-1.092-0.093-2.414,1.001-2.952
						c4.543-2.244,13.812-5.781,24.914-4.212c12.617,1.781,20.24,8.946,23.659,13.059c0.78,0.937,0.652,2.328-0.284,3.105
						C1230.654,1863.328,1230.155,1863.496,1229.659,1863.496z"/>
				</g>
			</g>
			<g>
				<path style="fill:#FFFFFF;" d="M716.415,1201.468c23.011,108.451,361.615,257.944,361.615,257.944l108.473-196.019
					l-392.409-161.736C794.094,1101.657,701.766,1132.426,716.415,1201.468z"/>
				<path style="fill:#FFFFFF;" d="M1108.779,1234.32c0,0,80.488-2.987,144.62-3.115c200.809-0.402,144.464,0,144.464,0
					l63.226,217.035l90.063,278.537l-597.825-0.785l103.749-268.667L1108.779,1234.32z"/>
				<path style="fill:#FFFFFF;" d="M1792.377,1200.389c-23.011,108.451-361.615,257.944-361.615,257.944l-108.473-196.019
					l392.409-161.736C1714.698,1100.578,1807.026,1131.347,1792.377,1200.389z"/>
				<g>
					<path style="fill:#BC8271;" d="M763.537,1095.276c53.318-79.718,138.138-202.447,157.613-229.538
						c2.039-2.837,5.616-7.861,11.861-12.886c23.138-18.622,45.822-7.428,79.086-15.906c37.744-9.62,53.55-36.406,61.639-30.618
						c5.627,4.027,2.509,15.809-12.084,35.57c-0.001,0.002,0.001,0.004,0.003,0.003c12.813-13.739,31.004-31.614,38.577-24.51
						c8.305,8.669-10.601,32.18-22.734,45.843c14.685-16.538,27.442-20.939,30.677-15.927c5.092,7.89-3.309,23.367-23.566,44.471
						c-0.001,0.001,0,0.002,0.001,0.002c18.057-10.665,24.028-10.561,25.807-5.433c3.249,9.363-13.731,26.4-31.051,39.161
						c-19.498,14.366-39.603,18.743-52.346,21.201c-0.003,0.001-25.7,4.905-25.702,4.908
						c-50.357,114.651-63.892,143.673-100.296,225.468C893.822,1193.261,763.534,1095.28,763.537,1095.276z"/>
					<path style="fill:#BC8271;" d="M983.4,851.838c20.047-32.916,20.302-49.037,14.985-52.047
						c-8.943-5.063-37.561,16.033-72.92,60.448C941.816,859.346,967.049,852.731,983.4,851.838z"/>
					<path style="fill:#363E44;" d="M950.958,847.074c-0.971,0-1.86-0.646-2.127-1.63c-0.317-1.176,0.379-2.386,1.555-2.704
						c8.389-2.267,17.053-2.48,26.225-2.707c4.235-0.105,8.615-0.213,13.179-0.525c1.29-0.034,2.269,0.837,2.351,2.05
						c0.082,1.216-0.835,2.267-2.05,2.351c-4.662,0.316-9.091,0.426-13.371,0.532c-8.901,0.22-17.309,0.428-25.185,2.558
						C951.344,847.05,951.15,847.074,950.958,847.074z"/>
					<path style="fill:#363E44;" d="M1030.816,860.811c-0.949,0-1.828-0.618-2.112-1.574c-0.349-1.167,0.314-2.396,1.481-2.743
						c4.367-1.303,8.63-3.016,12.667-5.09c5.863-3.014,11.313-6.813,16.198-11.289c0.9-0.823,2.293-0.76,3.116,0.136
						c0.822,0.898,0.762,2.293-0.136,3.116c-5.174,4.741-10.949,8.765-17.163,11.961c-4.278,2.198-8.796,4.011-13.421,5.391
						C1031.236,860.781,1031.025,860.811,1030.816,860.811z"/>
					<path style="fill:#363E44;" d="M1048.485,879.933c-0.952,0-1.828-0.618-2.112-1.576c-0.349-1.167,0.317-2.394,1.484-2.741
						c4.358-1.298,8.619-3.012,12.665-5.09c5.859-3.01,11.31-6.808,16.2-11.287c0.9-0.823,2.293-0.762,3.116,0.136
						c0.823,0.898,0.762,2.293-0.136,3.116c-5.181,4.746-10.955,8.768-17.165,11.959c-4.287,2.203-8.802,4.016-13.423,5.392
						C1048.905,879.903,1048.692,879.933,1048.485,879.933z"/>
					<path style="fill:#363E44;" d="M1054.342,911.063c-0.95,0-1.828-0.618-2.112-1.574c-0.349-1.167,0.314-2.396,1.481-2.743
						c4.373-1.305,8.634-3.019,12.667-5.092c5.865-3.014,11.317-6.81,16.2-11.287c0.9-0.823,2.293-0.76,3.116,0.136
						c0.823,0.898,0.762,2.293-0.136,3.116c-5.174,4.741-10.949,8.763-17.165,11.959c-4.272,2.196-8.787,4.011-13.421,5.394
						C1054.761,911.033,1054.551,911.063,1054.342,911.063z"/>
				</g>
				<g>
					<path style="fill:#BC8271;" d="M1731.34,1086.621c0.003-0.003-135.839-198.663-155.314-225.754
						c-2.039-2.837-5.616-7.861-11.861-12.886c-23.138-18.622-45.822-7.428-79.086-15.906c-37.744-9.62-53.55-36.406-61.639-30.618
						c-5.627,4.027-2.509,15.809,12.084,35.57c0.001,0.002-0.001,0.004-0.003,0.003c-12.813-13.739-31.004-31.614-38.577-24.51
						c-8.305,8.669,10.601,32.18,22.734,45.843c-14.685-16.538-27.442-20.939-30.677-15.927c-5.092,7.89,3.309,23.367,23.566,44.471
						c0.001,0.001,0,0.002-0.001,0.002c-18.057-10.665-24.028-10.561-25.807-5.433c-3.249,9.363,13.731,26.4,31.051,39.161
						c19.498,14.366,38.239,21.263,50.982,23.721c0.003,0.001,30.185,7.747,30.187,7.751
						c58.034,120.341,59.87,128.306,97.175,220.106C1602.82,1188.617,1690.638,1126.066,1731.34,1086.621z"/>
					<path style="fill:#BC8271;" d="M1513.776,846.968c-20.047-32.916-20.303-49.037-14.985-52.047
						c8.943-5.063,37.561,16.033,72.92,60.448C1555.36,854.475,1530.126,847.861,1513.776,846.968z"/>
					<path style="fill:#363E44;" d="M1546.217,842.203c-0.192,0-0.385-0.024-0.577-0.075c-7.876-2.129-16.282-2.338-25.183-2.558
						c-4.283-0.105-8.712-0.215-13.373-0.532c-1.214-0.084-2.132-1.135-2.05-2.351c0.082-1.212,1.113-2.097,2.351-2.05
						c4.565,0.312,8.944,0.42,13.179,0.525c9.175,0.226,17.839,0.439,26.225,2.706c1.176,0.319,1.871,1.529,1.555,2.704
						C1548.077,841.558,1547.188,842.203,1546.217,842.203z"/>
					<path style="fill:#363E44;" d="M1466.361,855.941c-0.209,0-0.42-0.03-0.631-0.093c-4.631-1.38-9.146-3.195-13.42-5.392
						c-6.214-3.195-11.989-7.219-17.165-11.961c-0.898-0.823-0.958-2.218-0.136-3.116s2.216-0.958,3.116-0.136
						c4.885,4.476,10.335,8.275,16.2,11.289c4.033,2.073,8.296,3.785,12.667,5.09c1.167,0.347,1.83,1.576,1.481,2.743
						C1468.189,855.323,1467.31,855.941,1466.361,855.941z"/>
					<path style="fill:#363E44;" d="M1448.69,875.063c-0.207,0-0.42-0.03-0.629-0.093c-4.621-1.376-9.136-3.189-13.423-5.391
						c-6.205-3.189-11.98-7.213-17.163-11.959c-0.898-0.823-0.958-2.218-0.136-3.116c0.823-0.896,2.216-0.958,3.116-0.136
						c4.892,4.481,10.341,8.279,16.198,11.287c4.046,2.078,8.307,3.792,12.665,5.09c1.167,0.347,1.832,1.574,1.484,2.741
						C1450.518,874.445,1449.642,875.063,1448.69,875.063z"/>
					<path style="fill:#363E44;" d="M1442.833,906.193c-0.209,0-0.42-0.03-0.631-0.093c-4.634-1.382-9.149-3.197-13.421-5.394
						c-6.216-3.195-11.991-7.217-17.165-11.959c-0.898-0.823-0.958-2.218-0.136-3.116c0.823-0.896,2.216-0.958,3.116-0.136
						c4.883,4.476,10.335,8.272,16.2,11.287c4.033,2.073,8.294,3.787,12.667,5.092c1.167,0.347,1.83,1.576,1.481,2.743
						C1444.661,905.575,1443.783,906.193,1442.833,906.193z"/>
				</g>
				<g>
					<polygon style="fill:#FFFFFF;" points="723.54,1154.611 819.996,974.849 1023.351,1157.821 817.549,1271.88 					"/>
					<path style="fill:#363E44;" d="M817.55,1274.085c-0.775,0-1.529-0.409-1.931-1.137c-0.59-1.064-0.204-2.405,0.861-2.997
						l166.143-92.079c1.061-0.588,2.407-0.205,2.997,0.861c0.59,1.064,0.204,2.405-0.861,2.997l-166.143,92.079
						C818.277,1273.997,817.911,1274.085,817.55,1274.085z"/>
				</g>
				<g>
					<polygon style="fill:#FFFFFF;" points="1785.865,1154.611 1689.408,974.849 1458.521,1142.562 1691.856,1271.88 					"/>
					<path style="fill:#363E44;" d="M1691.853,1274.085c-0.362,0-0.728-0.088-1.066-0.276l-166.141-92.079
						c-1.066-0.592-1.451-1.933-0.861-2.997c0.59-1.066,1.934-1.449,2.997-0.861l166.141,92.079
						c1.066,0.592,1.451,1.933,0.861,2.997C1693.382,1273.676,1692.628,1274.085,1691.853,1274.085z"/>
				</g>
				<g>
					<path style="fill:#363E44;" d="M1262.9,1649.071c-21.781,0-39.515-17.705-39.545-39.493l-0.047-37.336
						c-0.002-1.216,0.984-2.205,2.203-2.207l74.675-0.097h0.002c0.583,0,1.143,0.233,1.557,0.644
						c0.413,0.413,0.648,0.973,0.648,1.559l0.047,37.338c0.015,10.561-4.087,20.496-11.545,27.976
						c-7.458,7.478-17.382,11.603-27.946,11.616C1262.934,1649.071,1262.915,1649.071,1262.9,1649.071z M1227.719,1574.443
						l0.045,35.131c0.026,19.357,15.785,35.088,35.135,35.088c0.015,0,0.03,0,0.045,0c9.383-0.011,18.2-3.677,24.828-10.322
						c6.627-6.645,10.271-15.47,10.258-24.856l-0.045-35.133L1227.719,1574.443z"/>
					
						<ellipse transform="matrix(0.1707 -0.9853 0.9853 0.1707 -423.7658 2482.3516)" style="fill:#EFBC73;" cx="1262.747" cy="1492.912" rx="96.669" ry="96.669"/>
					<path style="fill:#363E44;" d="M1262.579,1624.52c-9.539,0-18.509-0.527-25.293-1.488c-8.91-1.26-12.383-2.883-12.385-5.783
						c0-1.219,0.986-2.207,2.203-2.207h0.002c0.973,0,1.8,0.631,2.093,1.507c1.983,1.32,13.169,3.561,33.357,3.561
						c0.118,0,0.237,0,0.357,0c20.412-0.026,31.712-2.317,33.705-3.65c0.289-0.876,1.115-1.509,2.089-1.511c0.002,0,0.004,0,0.004,0
						c1.217,0,2.203,0.984,2.205,2.201c0.004,2.902-3.464,4.532-12.372,5.818c-6.86,0.988-15.961,1.54-25.627,1.552
						C1262.805,1624.52,1262.691,1624.52,1262.579,1624.52z"/>
					<path style="fill:#363E44;" d="M1262.536,1608.152c-11.614,0-37.646-0.732-37.656-7.269c-0.002-1.219,0.984-2.207,2.201-2.209
						c0.002,0,0.004,0,0.004,0c0.973,0,1.8,0.631,2.091,1.505c1.985,1.32,13.173,3.564,33.359,3.564c0.118,0,0.237,0,0.357,0
						c20.412-0.026,31.712-2.317,33.705-3.65c0.288-0.876,1.115-1.509,2.089-1.511c0.002,0,0.004,0,0.004,0
						c1.217,0,2.203,0.984,2.205,2.2c0.004,2.902-3.464,4.532-12.372,5.818c-6.86,0.988-15.961,1.539-25.627,1.552
						C1262.779,1608.152,1262.656,1608.152,1262.536,1608.152z"/>
					<g>
						<path style="fill:#363E44;" d="M1249.931,1568.274c-0.855,0-1.671-0.502-2.028-1.339l-30.471-71.349
							c-0.478-1.12,0.043-2.416,1.163-2.894c1.109-0.478,2.414,0.039,2.894,1.163l30.471,71.349c0.478,1.12-0.043,2.416-1.163,2.894
							C1250.515,1568.218,1250.222,1568.274,1249.931,1568.274z"/>
						<path style="fill:#363E44;" d="M1275.752,1568.241c-0.288,0-0.579-0.056-0.861-0.174c-1.12-0.476-1.645-1.77-1.169-2.892
							l30.286-71.428c0.478-1.122,1.772-1.641,2.892-1.169c1.12,0.476,1.645,1.77,1.169,2.892l-30.286,71.428
							C1277.425,1567.738,1276.609,1568.241,1275.752,1568.241z"/>
						<path style="fill:#FFFFFF;" d="M1245.371,1505.527c-4.013,0-8.016-0.969-11.513-2.958c-1.057-0.603-1.428-1.949-0.825-3.008
							c0.603-1.059,1.949-1.43,3.008-0.825c5.818,3.309,13.36,3.146,19.152-0.134c-5.157-3.335-9.239-8.333-11.087-14.224
							c-1.522-4.844-1.378-9.614,0.405-13.429c2.229-4.765,7.11-7.784,11.844-7.293c5.46,0.538,9.256,5.211,10.988,9.403
							c3.335,8.089,1.583,17.951-4.091,24.552c2.741,0.865,5.635,1.208,8.514,0.915c10.109-1.023,18.842-9.743,19.878-19.85
							c0.125-1.212,1.223-2.052,2.418-1.97c1.212,0.125,2.093,1.208,1.97,2.418c-1.242,12.114-11.707,22.563-23.822,23.79
							c-4.285,0.435-8.606-0.306-12.557-1.959C1255.557,1503.968,1250.457,1505.527,1245.371,1505.527z M1255.381,1468.019
							c-2.715,0-5.538,1.942-6.873,4.799c-1.316,2.812-1.385,6.451-0.194,10.24c1.703,5.434,5.689,9.958,10.643,12.703
							c5.383-5.327,7.207-13.998,4.308-21.019c-1.242-3.01-3.822-6.352-7.342-6.698
							C1255.745,1468.028,1255.562,1468.019,1255.381,1468.019z"/>
					</g>
				</g>
			</g>
			<g>
				<circle style="fill:#363E44;" cx="1254.116" cy="1030.344" r="95.258"/>
				<rect x="1207.744" y="1108.684" style="fill:#BC8271;" width="94.79" height="163.196"/>
				<path style="fill:#BC8271;" d="M1332.766,1064.975c0,50.743-35.144,104.268-78.497,104.268s-78.497-53.526-78.497-104.268
					c0-5.781,0.456-11.438,1.329-16.923c0,0,36.341-7.425,61.556-23.64c25.271-16.251,43.14-39.872,43.14-39.872
					C1311.571,997.592,1332.766,1025.569,1332.766,1064.975z"/>
				<path style="fill:#363E44;" d="M1254.27,1171.447c-15.996,0-31.701-6.995-45.421-20.229c-0.876-0.846-0.902-2.241-0.056-3.118
					c0.848-0.876,2.241-0.9,3.118-0.056c12.88,12.426,27.528,18.993,42.359,18.993c16.134,0,31.858-7.659,45.47-22.149
					c0.831-0.891,2.229-0.932,3.116-0.097c0.887,0.833,0.932,2.229,0.097,3.116
					C1288.485,1163.306,1271.652,1171.447,1254.27,1171.447z"/>
				
					<ellipse transform="matrix(0.9098 -0.4151 0.4151 0.9098 -339.2597 582.7886)" style="fill:#BC8271;" cx="1170.994" cy="1071.814" rx="20.814" ry="30.923"/>
				<path style="fill:#363E44;" d="M1165.808,1086.127c-0.508,0-1.016-0.172-1.432-0.527c-2.603-2.222-4.802-5.2-6.358-8.61
					c-2.039-4.468-2.778-9.237-2.082-13.429c0.747-4.513,3.049-7.859,6.479-9.424c2.599-1.186,5.579-1.212,8.617-0.073
					c1.139,0.428,1.716,1.699,1.29,2.84c-0.428,1.141-1.703,1.712-2.84,1.29c-1.333-0.504-3.329-0.913-5.234-0.045
					c-2.056,0.939-3.462,3.116-3.962,6.134c-0.553,3.335,0.067,7.2,1.746,10.878c1.29,2.829,3.09,5.28,5.208,7.086
					c0.926,0.79,1.036,2.181,0.245,3.109C1167.048,1085.864,1166.43,1086.127,1165.808,1086.127z"/>
				
					<ellipse transform="matrix(0.4151 -0.9098 0.9098 0.4151 -191.98 1845.0117)" style="fill:#BC8271;" cx="1338.924" cy="1071.814" rx="30.923" ry="20.814"/>
				<path style="fill:#363E44;" d="M1327.513,1100.779c-0.226,0-0.459-0.035-0.687-0.11c-1.156-0.379-1.787-1.623-1.408-2.782
					c3.466-10.585,5.224-21.753,5.224-33.197c0-4.881-0.327-9.777-0.971-14.553c-0.161-1.208,0.685-2.317,1.891-2.48
					c1.221-0.157,2.319,0.685,2.48,1.89c0.67,4.972,1.01,10.066,1.01,15.143c0,11.911-1.83,23.54-5.443,34.571
					C1329.305,1100.189,1328.441,1100.779,1327.513,1100.779z"/>
				<path style="fill:#363E44;" d="M1181.058,1100.398c-0.926,0-1.787-0.586-2.093-1.511c-3.583-10.813-5.398-22.223-5.398-33.912
					c0-5.801,0.456-11.61,1.356-17.268c0.192-1.201,1.303-2.03,2.524-1.83c1.201,0.192,2.022,1.32,1.83,2.523
					c-0.863,5.43-1.301,11.007-1.301,16.575c0,11.218,1.742,22.16,5.174,32.525c0.383,1.156-0.243,2.403-1.399,2.786
					C1181.521,1100.361,1181.289,1100.398,1181.058,1100.398z"/>
				<path style="fill:#363E44;" d="M1255.837,1110.806c-0.728,0-1.443-0.359-1.862-1.021c-0.655-1.027-0.351-2.39,0.676-3.045
					c2.349-1.496,3.759-3.176,4.192-4.993c0.42-1.77-0.159-3.213-1.309-5.82c-0.838-1.901-1.88-4.268-2.476-7.323
					c-0.76-3.889-0.62-8.008,0.418-12.245c0.293-1.182,1.494-1.899,2.668-1.617c1.182,0.291,1.906,1.486,1.617,2.668
					c-0.885,3.611-1.012,7.092-0.375,10.348c0.502,2.573,1.395,4.601,2.183,6.391c1.208,2.739,2.347,5.325,1.563,8.619
					c-0.704,2.971-2.762,5.559-6.113,7.693C1256.651,1110.694,1256.242,1110.806,1255.837,1110.806z"/>
				<path style="fill:#363E44;" d="M1255.14,1138.119c-0.349,0-0.702-0.082-1.031-0.258c-5.142-2.73-7.542-8.789-5.465-13.793
					c1.539-3.703,5.335-6.22,9.672-6.412c1.182-0.058,2.246,0.889,2.3,2.106s-0.889,2.246-2.106,2.3
					c-2.633,0.116-4.907,1.568-5.792,3.699c-1.195,2.877,0.357,6.558,3.458,8.208c1.077,0.571,1.486,1.906,0.913,2.98
					C1256.692,1137.694,1255.93,1138.119,1255.14,1138.119z"/>
				<path style="fill:#363E44;" d="M1343.044,1086.127c-0.622,0-1.24-0.263-1.677-0.773c-0.79-0.928-0.68-2.319,0.246-3.109
					c2.119-1.807,3.919-4.257,5.208-7.086c1.679-3.678,2.3-7.54,1.746-10.878c-0.502-3.019-1.908-5.195-3.962-6.132
					c-1.91-0.872-3.904-0.461-5.239,0.043c-1.133,0.42-2.411-0.148-2.838-1.292c-0.426-1.139,0.151-2.409,1.292-2.838
					c3.038-1.139,6.018-1.113,8.617,0.075c3.428,1.563,5.729,4.909,6.479,9.422c0.695,4.192-0.043,8.961-2.082,13.429
					c-1.557,3.411-3.755,6.388-6.358,8.61C1344.06,1085.954,1343.552,1086.127,1343.044,1086.127z"/>
				<circle style="fill:#363E44;" cx="1248.245" cy="889.46" r="53.868"/>
				<path style="fill:#363E44;" d="M1237.271,947.018c-33.815,0-61.326-19.187-61.326-42.772c0-23.585,27.511-42.772,61.326-42.772
					c33.815,0,61.326,19.187,61.326,42.772C1298.597,927.832,1271.086,947.018,1237.271,947.018z M1237.271,865.884
					c-31.384,0-56.916,17.21-56.916,38.362c0,21.153,25.532,38.363,56.916,38.363c31.384,0,56.916-17.21,56.916-38.363
					C1294.187,883.094,1268.655,865.884,1237.271,865.884z"/>
				<path style="fill:#363E44;" d="M1227.93,959.761c-13.561,0.002-25.332-4.845-32.078-14.534
					c-13.474-19.357-1.86-50.823,25.889-70.143c13.322-9.276,28.359-14.437,42.342-14.532c0.131,0,0.263,0,0.394,0
					c14.11,0,25.474,5.174,32.03,14.594c6.621,9.506,7.484,22.104,2.435,35.473c-4.944,13.08-15.001,25.394-28.322,34.668
					C1256.763,954.938,1241.456,959.761,1227.93,959.761z M1264.476,864.962c-0.121,0-0.241,0-0.362,0
					c-13.102,0.088-27.255,4.969-39.853,13.739c-25.754,17.934-36.875,46.646-24.791,64.007
					c12.092,17.361,42.876,16.891,68.631-1.038c12.598-8.772,22.085-20.352,26.716-32.609c4.522-11.967,3.837-23.116-1.927-31.395
					l0,0C1287.181,869.464,1277.099,864.962,1264.476,864.962z"/>
				<path style="fill:#363E44;" d="M1215.952,1083.853c-16.523,0-29.565-14.738-30.112-15.365c-0.799-0.917-0.704-2.308,0.213-3.109
					c0.915-0.799,2.308-0.706,3.109,0.209c0.123,0.14,12.292,13.855,26.789,13.855c14.499,0,26.669-13.716,26.792-13.855
					c0.801-0.913,2.194-1.005,3.109-0.209c0.917,0.801,1.012,2.192,0.213,3.109
					C1245.519,1069.115,1232.478,1083.853,1215.952,1083.853z"/>
				<path style="fill:#363E44;" d="M1293.838,1083.853c-16.525,0-29.565-14.738-30.112-15.365c-0.799-0.917-0.704-2.308,0.213-3.109
					c0.913-0.799,2.308-0.706,3.109,0.209c0.123,0.14,12.292,13.855,26.789,13.855c14.499,0,26.669-13.716,26.792-13.855
					c0.801-0.913,2.194-1.005,3.109-0.209c0.917,0.801,1.012,2.192,0.213,3.109
					C1323.405,1069.115,1310.363,1083.853,1293.838,1083.853z"/>
				<ellipse style="fill:#BC8271;" cx="1255.356" cy="1289.753" rx="121.292" ry="64.273"/>
			</g>
		</g>
		<g>
			<g>
				<g>
					<rect x="1083.283" y="367.459" style="fill:#FFFFFF;" width="373.197" height="370.99"/>
					<path style="fill:#D3BBA3;" d="M1456.48,740.655h-373.196c-1.219,0-2.205-0.986-2.205-2.205V367.459
						c0-1.219,0.986-2.205,2.205-2.205h373.196c1.219,0,2.205,0.986,2.205,2.205V738.45
						C1458.685,739.669,1457.699,740.655,1456.48,740.655z M1085.489,736.245h368.786V369.664h-368.786V736.245z"/>
				</g>
				<g>
					<rect x="1395.595" y="432.593" style="fill:#E6D0BE;" width="41.711" height="41.711"/>
					<rect x="1346.353" y="432.593" style="fill:#E6D0BE;" width="41.711" height="41.711"/>
					<rect x="1297.111" y="432.593" style="fill:#E6D0BE;" width="41.711" height="41.711"/>
					<rect x="1247.869" y="432.593" style="fill:#E6D0BE;" width="41.711" height="41.711"/>
					<rect x="1198.627" y="432.593" style="fill:#E6D0BE;" width="41.711" height="41.711"/>
					<rect x="1149.385" y="432.593" style="fill:#E6D0BE;" width="41.711" height="41.711"/>
					<rect x="1100.174" y="432.593" style="fill:#E6D0BE;" width="41.711" height="41.711"/>
					<rect x="1395.595" y="481.499" style="fill:#E6D0BE;" width="41.711" height="41.711"/>
					<rect x="1346.353" y="481.499" style="fill:#E6D0BE;" width="41.711" height="41.711"/>
					<rect x="1297.111" y="481.499" style="fill:#E6D0BE;" width="41.711" height="41.711"/>
					<rect x="1247.869" y="481.499" style="fill:#E6D0BE;" width="41.711" height="41.711"/>
					<rect x="1198.627" y="481.499" style="fill:#E6D0BE;" width="41.711" height="41.711"/>
					<rect x="1149.385" y="481.499" style="fill:#E6D0BE;" width="41.711" height="41.711"/>
					<rect x="1100.142" y="481.499" style="fill:#E6D0BE;" width="41.711" height="41.711"/>
					<rect x="1395.595" y="530.405" style="fill:#E6D0BE;" width="41.711" height="41.711"/>
					<rect x="1346.353" y="530.405" style="fill:#E6D0BE;" width="41.711" height="41.711"/>
					<rect x="1297.111" y="530.405" style="fill:#E6D0BE;" width="41.711" height="41.711"/>
					<rect x="1247.869" y="530.405" style="fill:#E6D0BE;" width="41.711" height="41.711"/>
					<rect x="1198.627" y="530.405" style="fill:#E6D0BE;" width="41.711" height="41.711"/>
					<rect x="1149.385" y="530.405" style="fill:#E6D0BE;" width="41.711" height="41.711"/>
					<rect x="1100.142" y="530.405" style="fill:#E6D0BE;" width="41.711" height="41.711"/>
					<rect x="1395.595" y="579.311" style="fill:#E6D0BE;" width="41.711" height="41.711"/>
					<rect x="1346.353" y="579.311" style="fill:#E6D0BE;" width="41.711" height="41.711"/>
					<rect x="1297.111" y="579.311" style="fill:#E6D0BE;" width="41.711" height="41.711"/>
					<rect x="1247.869" y="579.311" style="fill:#E6D0BE;" width="41.711" height="41.711"/>
					<rect x="1198.627" y="579.311" style="fill:#E6D0BE;" width="41.711" height="41.711"/>
					<rect x="1149.385" y="579.311" style="fill:#E6D0BE;" width="41.711" height="41.711"/>
					<rect x="1100.142" y="579.311" style="fill:#E6D0BE;" width="41.711" height="41.711"/>
				</g>
				<g>
					<circle style="fill:#F2E6DC;" cx="1434.51" cy="384.767" r="5.494"/>
					<circle style="fill:#F2E6DC;" cx="1401.426" cy="384.767" r="5.494"/>
					<circle style="fill:#F2E6DC;" cx="1368.342" cy="384.767" r="5.494"/>
					<circle style="fill:#F2E6DC;" cx="1335.257" cy="384.767" r="5.494"/>
					<circle style="fill:#F2E6DC;" cx="1302.173" cy="384.767" r="5.494"/>
					<path style="fill:#F2E6DC;" d="M1274.583,384.767c0,3.034-2.46,5.494-5.494,5.494c-3.034,0-5.494-2.46-5.494-5.494
						c0-3.034,2.46-5.494,5.494-5.494C1272.123,379.272,1274.583,381.732,1274.583,384.767z"/>
					<circle style="fill:#F2E6DC;" cx="1236.005" cy="384.767" r="5.494"/>
					<circle style="fill:#F2E6DC;" cx="1202.92" cy="384.767" r="5.494"/>
					<circle style="fill:#F2E6DC;" cx="1169.836" cy="384.767" r="5.494"/>
					<path style="fill:#F2E6DC;" d="M1142.246,384.767c0,3.034-2.46,5.494-5.494,5.494c-3.034,0-5.494-2.46-5.494-5.494
						c0-3.034,2.46-5.494,5.494-5.494C1139.786,379.272,1142.246,381.732,1142.246,384.767z"/>
					<circle style="fill:#F2E6DC;" cx="1103.667" cy="384.767" r="5.494"/>
					<g>
						<g>
							<path style="fill:#FFFFFF;" d="M1104.359,353.871v30.56V353.871z"/>
							<path style="fill:#D3BBA3;" d="M1104.359,386.635c-1.219,0-2.205-0.986-2.205-2.205v-30.56c0-1.219,0.986-2.205,2.205-2.205
								c1.219,0,2.205,0.986,2.205,2.205v30.56C1106.564,385.649,1105.578,386.635,1104.359,386.635z"/>
						</g>
						<g>
							<path style="fill:#FFFFFF;" d="M1137.37,353.871v30.56V353.871z"/>
							<path style="fill:#D3BBA3;" d="M1137.369,386.635c-1.219,0-2.205-0.986-2.205-2.205v-30.56c0-1.219,0.986-2.205,2.205-2.205
								s2.205,0.986,2.205,2.205v30.56C1139.574,385.649,1138.588,386.635,1137.369,386.635z"/>
						</g>
						<g>
							<path style="fill:#FFFFFF;" d="M1170.381,353.871v30.56V353.871z"/>
							<path style="fill:#D3BBA3;" d="M1170.381,386.635c-1.219,0-2.205-0.986-2.205-2.205v-30.56c0-1.219,0.986-2.205,2.205-2.205
								c1.219,0,2.205,0.986,2.205,2.205v30.56C1172.586,385.649,1171.6,386.635,1170.381,386.635z"/>
						</g>
						<g>
							<path style="fill:#FFFFFF;" d="M1203.392,353.871v30.56V353.871z"/>
							<path style="fill:#D3BBA3;" d="M1203.391,386.635c-1.219,0-2.205-0.986-2.205-2.205v-30.56c0-1.219,0.986-2.205,2.205-2.205
								c1.219,0,2.205,0.986,2.205,2.205v30.56C1205.596,385.649,1204.61,386.635,1203.391,386.635z"/>
						</g>
						<g>
							<path style="fill:#FFFFFF;" d="M1236.402,353.871v30.56V353.871z"/>
							<path style="fill:#D3BBA3;" d="M1236.403,386.635c-1.219,0-2.205-0.986-2.205-2.205v-30.56c0-1.219,0.986-2.205,2.205-2.205
								c1.219,0,2.205,0.986,2.205,2.205v30.56C1238.608,385.649,1237.622,386.635,1236.403,386.635z"/>
						</g>
						<g>
							<path style="fill:#FFFFFF;" d="M1269.413,353.871v30.56V353.871z"/>
							<path style="fill:#D3BBA3;" d="M1269.413,386.635c-1.219,0-2.205-0.986-2.205-2.205v-30.56c0-1.219,0.986-2.205,2.205-2.205
								s2.205,0.986,2.205,2.205v30.56C1271.618,385.649,1270.631,386.635,1269.413,386.635z"/>
						</g>
						<g>
							<path style="fill:#FFFFFF;" d="M1302.424,353.871v30.56V353.871z"/>
							<path style="fill:#D3BBA3;" d="M1302.425,386.635c-1.219,0-2.205-0.986-2.205-2.205v-30.56c0-1.219,0.986-2.205,2.205-2.205
								c1.219,0,2.205,0.986,2.205,2.205v30.56C1304.63,385.649,1303.643,386.635,1302.425,386.635z"/>
						</g>
						<g>
							<path style="fill:#FFFFFF;" d="M1335.435,353.871v30.56V353.871z"/>
							<path style="fill:#D3BBA3;" d="M1335.435,386.635c-1.219,0-2.205-0.986-2.205-2.205v-30.56c0-1.219,0.986-2.205,2.205-2.205
								c1.219,0,2.205,0.986,2.205,2.205v30.56C1337.639,385.649,1336.653,386.635,1335.435,386.635z"/>
						</g>
						<g>
							<path style="fill:#FFFFFF;" d="M1368.446,353.871v30.56V353.871z"/>
							<path style="fill:#D3BBA3;" d="M1368.447,386.635c-1.219,0-2.205-0.986-2.205-2.205v-30.56c0-1.219,0.986-2.205,2.205-2.205
								c1.219,0,2.205,0.986,2.205,2.205v30.56C1370.651,385.649,1369.665,386.635,1368.447,386.635z"/>
						</g>
						<g>
							<path style="fill:#FFFFFF;" d="M1401.457,353.871v30.56V353.871z"/>
							<path style="fill:#D3BBA3;" d="M1401.456,386.635c-1.219,0-2.205-0.986-2.205-2.205v-30.56c0-1.219,0.986-2.205,2.205-2.205
								s2.205,0.986,2.205,2.205v30.56C1403.661,385.649,1402.675,386.635,1401.456,386.635z"/>
						</g>
						<g>
							<path style="fill:#FFFFFF;" d="M1434.468,353.871v30.56V353.871z"/>
							<path style="fill:#D3BBA3;" d="M1434.468,386.635c-1.219,0-2.205-0.986-2.205-2.205v-30.56c0-1.219,0.986-2.205,2.205-2.205
								c1.219,0,2.205,0.986,2.205,2.205v30.56C1436.673,385.649,1435.687,386.635,1434.468,386.635z"/>
						</g>
					</g>
				</g>
			</g>
			<g>
				
					<ellipse transform="matrix(0.7071 -0.7071 0.7071 0.7071 -200.9837 748.3718)" style="fill:#FFFFFF;" cx="802.873" cy="616.795" rx="178.812" ry="178.812"/>
				<path style="fill:#F2E6DC;" d="M802.758,780.081c-80.993,0.004-151.461-60.413-161.871-142.82
					c-11.285-89.319,52.199-171.166,141.52-182.453c43.248-5.469,86.072,6.242,120.537,32.973
					c34.461,26.729,56.449,65.279,61.916,108.549l0,0c11.285,89.319-52.199,171.166-141.52,182.453
					C816.428,779.657,809.553,780.081,802.758,780.081z M803.195,457.904c-6.714,0-13.468,0.424-20.237,1.279
					c-86.905,10.981-148.677,90.619-137.696,177.527c5.318,42.098,26.714,79.608,60.243,105.614
					c33.533,26.008,75.175,37.4,117.284,32.084c86.905-10.981,148.677-90.619,137.696-177.527l0,0
					c-5.318-42.098-26.714-79.608-60.243-105.616C872.1,469.438,838.239,457.904,803.195,457.904z"/>
				<path style="fill:#D3BBA3;" d="M907.878,681.426c-0.383,0-0.771-0.099-1.124-0.31L801.748,618.69
					c-0.586-0.347-0.975-0.943-1.062-1.619l-12.493-98.866c-0.153-1.208,0.704-2.31,1.912-2.463c1.199-0.133,2.31,0.702,2.463,1.912
					l12.357,97.796l104.081,61.877c1.046,0.622,1.391,1.974,0.769,3.021C909.364,681.041,908.63,681.426,907.878,681.426z"/>
			</g>
			<g>
				<path style="fill:#D87355;" d="M1824.477,593.821c-13.319,60.014-151.377,168.336-151.377,168.336
					s-79.274-156.554-65.954-216.569c13.319-60.014,72.767-97.868,132.782-84.549
					C1799.942,474.358,1837.796,533.807,1824.477,593.821z"/>
				<path style="fill:#F2E6DC;" d="M1773.682,588.107c-7.237,32.611-39.541,53.18-72.151,45.943
					c-32.611-7.237-53.18-39.541-45.942-72.151c7.237-32.611,39.54-53.18,72.151-45.943
					C1760.35,523.193,1780.92,555.496,1773.682,588.107z"/>
			</g>
			<g>
				<path style="fill:#FFFFFF;" d="M1934.298,926.986l149.663,63.258c-34.936,82.657-130.265,121.342-212.921,86.405
					c-82.657-34.936-121.342-130.265-86.406-212.922l0,0L1934.298,926.986z"/>
				<path style="fill:#8B865C;" d="M1946.41,916.233l-19.75-158.836c87.723-10.908,167.679,51.364,178.586,139.087
					c3.632,29.212,0.055,54.95-11.405,82.064L1946.41,916.233z"/>
				<path style="fill:#EFBC73;" d="M1932.382,911.985l-142.036-60.034c22.082-52.244,66.723-85.991,123.008-92.989L1932.382,911.985
					z"/>
			</g>
			<g>
				<g>
					
						<rect x="497.179" y="782.884" transform="matrix(0.2406 -0.9706 0.9706 0.2406 -455.0625 1263.256)" style="fill:#EFBC73;" width="165.215" height="279.127"/>
					<path style="fill:#E0AA63;" d="M593.879,920.946c-14.796,0-29.154-5.906-39.896-16.932l-78.796-80.887
						c-0.85-0.874-0.833-2.269,0.039-3.118c0.874-0.851,2.27-0.835,3.118,0.039l78.799,80.887
						c13.756,14.122,33.959,19.126,52.713,13.07l111.027-35.871c1.167-0.379,2.403,0.263,2.775,1.419
						c0.375,1.158-0.26,2.403-1.419,2.775l-111.027,35.871C605.495,920.046,599.651,920.946,593.879,920.946z"/>
				</g>
				<path style="fill:#F7F1EB;" d="M682.601,1011.128c-0.177,0-0.355-0.022-0.532-0.065l-73.411-18.198
					c-1.182-0.293-1.903-1.488-1.61-2.67l10.606-42.794c0.14-0.568,0.502-1.057,1.001-1.359c0.5-0.302,1.098-0.394,1.669-0.252
					l73.414,18.198c0.568,0.14,1.057,0.502,1.359,1.001c0.301,0.502,0.392,1.102,0.252,1.669l-10.609,42.794
					C684.49,1010.459,683.59,1011.128,682.601,1011.128z M611.858,989.115l69.131,17.139l9.549-38.513l-69.133-17.139
					L611.858,989.115z"/>
			</g>
		</g>
	</g>
</g>
</svg>
